@startuml
skinparam backgroundcolor white

skinparam class {
	BackgroundColor FFF0DE
	ArrowColor grey
	BorderColor grey
	BackgroundColor<<NotYetImplemented>> FFA436
}



class Uri {
    - uri_str : std::string
    + parse() : void
}
note right of Uri
    This class is overkill now.
    May be better to reimplement
    or remove.
end note
class Subject {
    + metaId : Uri
}

interface Predicate {
    + cv : ControlledVocabulary*
}
class ControlledVocabulary <<BaseClass>> {
    + namespace : std::string
    + root      : std::string
    + qualifier : std::string
    + getUri() : Uri
}
note top of ControlledVocabulary
    Rename to Term???
end note
ControlledVocabulary <-- Predicate
Uri <-- ControlledVocabulary

class BiomodelsBiologyQualifier {}
class OPB {}
class CHEBI {}



class Resource {
    - identifiers_base: std::string
    - namespace : std::string
    - identifier : std::string
}
note right of Resource
    This class implements
    a Resource as a web
    resource resolvable by
    identifiers.org but
    not a resource from a
    literal. However,
    might be better to
    just use a string for
    literal?
end note
class ResourceUrl {}

class ResourceLiteral <<NotYetImplemented>>{}


note top of Resource
    Object part of rdf.
end note


class Triple {
    + subject : Subject
    + predicate : Predicate
    + resource : Resource*
    + serialize() : std::string
}

class ListOfTriples <<NotYetImplemented>>{
    + triples : std::vector<Triple*>
    + serialize() : std::string
}

interface IRDF {
    + serialize() : std::string
}

class PhysicalProperty <<NotYetImplemented>>{
    + triple : Triple*
}

interface Entity<<NotYetImplemented>> {
    + triple : Triple
}

class PhysicalEntity <<NotYetImplemented>>{}
class PhysicalProcess<<NotYetImplemented>> {}
class EnergyDiff <<NotYetImplemented>>{}
class PhysicalDependency <<NotYetImplemented>>{}

'Base class for all annotations
class Annotation<<NotYetImplemented>> {
    + serialize() : std::string
    + iscomposite() : bool
}
note right of Annotation
    Base class for annotations.
    Primarily for polymorphism.
end note
'todo Conceptually, could we use an isa relationshop between singular annotation and Triple?

class SingularAnnotation <<NotYetImplemented>>{
    + triple : Triple
    + serialize() :std::string
}
note top of SingularAnnotation
    Should I have a
    RDF interface for
    methods such as
    serialize?
end note

note left of SingularAnnotation
    Q) Can we use an
    "is-a" relationship
    between Triple and
    SingularAnnotation?
    i.e inheritance not
    composition.
end note
'Not sure what type the physicalEntity / physicalProperty should have.
'Not sure what the physicalEntity should be called.
'From section 2.27 of omex metadata spec: physical entity, process, force or dependency that bears the physical property.
class CompositeAnnotation<<NotYetImplemented>> {
    + physicalProperty : PhysicalProperty
    + physicalEntity : Entity*
    + serialize() :std::string
}


class ListOfAnnotations <<NotYetImplemented>>{
    + annotations : std::unique_ptr<Annotation>
    + fromSBML() : static ListOfAnnotations
    + fromCellML() : static ListOfAnnotations
    + toSBML() :    void
    + toCellML() :  void
}


class LibRDFModel {
    - librdf_world* world;
    - librdf_storage* storage;
    - librdf_parser* parser;
    - librdf_model* model;
    - raptor_world *raptor_world_ptr;
    - raptor_iostream* iostr;
    - librdf_uri *uri;
    + fromWWW() : static LibRDFModel
    + fromXML() : static LibRDFModel
    + fromFile() : static LibRDFModel
    + fromString() : static LibRDFModel
    + query() : LibRDFModel
    + addStatement() : LibRDFModel
    + removeStatement() : LibRDFModel
    + replaceStatement() : LibRDFModel
    + toString(std::string format) : std::string
    + toFile(std::string format) : std::string

}

class Serializer {
    world: librdf_world*
    serializer: librdf_serializer*

    makeSerializer():
    registerNamespace(): void
    toString(): std::string
    toFile(): void
}


IRDF <|-- Triple
IRDF <|-- ListOfTriples
IRDF <|-- SingularAnnotation
ListOfTriples --> Triple

Subject <-- Triple
Predicate <-- Triple
Resource <-- Triple
ControlledVocabulary <|-- BiomodelsBiologyQualifier
ControlledVocabulary <|-- OPB
ControlledVocabulary <|-- CHEBI
Resource <|-- ResourceUrl
Resource <|-- ResourceLiteral

Uri <-- Subject
Triple <-- PhysicalProperty
Triple <-- Entity
Entity <|-- PhysicalEntity
Entity <|-- PhysicalProcess
Entity <|-- EnergyDiff
Entity <|-- PhysicalDependency

SingularAnnotation --|> Annotation
CompositeAnnotation --|> Annotation
Triple <-- SingularAnnotation

Entity <-- CompositeAnnotation
PhysicalProperty <-- CompositeAnnotation

Annotation <-- ListOfAnnotations



@enduml